<svg width="102" height="89" viewBox="0 0 102 89" fill="none" xmlns="http://www.w3.org/2000/svg">
<path d="M101.4 0.356934V15.6569C96.6001 16.4569 92.7001 18.4569 89.7001 21.6569C86.7001 24.8569 84.4001 28.8569 82.8001 33.6569C81.4001 38.4569 80.7001 43.6569 80.7001 49.2569H99.3001V87.657H61.2001V52.5569C61.2001 40.7569 63.1001 31.3569 66.9001 24.3569C70.7001 17.1569 75.6001 11.6569 81.6001 7.85695C87.8001 4.05695 94.4001 1.55694 101.4 0.356934ZM40.8001 0.356934V15.6569C36.0001 16.4569 32.1001 18.4569 29.1001 21.6569C26.1001 24.8569 23.8001 28.8569 22.2001 33.6569C20.8001 38.4569 20.1001 43.6569 20.1001 49.2569H38.7001V87.657H0.600098V52.5569C0.600098 40.7569 2.5001 31.3569 6.3001 24.3569C10.1001 17.1569 15.0001 11.6569 21.0001 7.85695C27.2001 4.05695 33.8001 1.55694 40.8001 0.356934Z" stroke="#EEEEEE"/>
</svg>
